<svg xmlns="http://www.w3.org/2000/svg" viewBox="0 0 600 360" width="600" height="360" role="img" aria-label="Reparación: una varilla nueva reemplaza la que se rompió"><title>Reparación: una varilla nueva reemplaza la que se rompió</title><rect width="600" height="360" fill="#FFFFFF"/><rect x="0" y="300" width="600" height="60" fill="#C9CEC9"/><path d="M0 170H600" stroke="#9AA39F" stroke-width="2.5"/><path d="M0 210H600" stroke="#9AA39F" stroke-width="2.5"/><path d="M0 250H600" stroke="#9AA39F" stroke-width="2.5"/><rect x="52" y="140" width="16" height="200" fill="#B9BEB9"/><rect x="172" y="140" width="16" height="200" fill="#B9BEB9"/><rect x="412" y="140" width="16" height="200" fill="#B9BEB9"/><rect x="532" y="140" width="16" height="200" fill="#B9BEB9"/><path d="M293 140H307V324.6L300.0 340L293 324.6ZM302.8 170.0A2.8 2.8 0 1 0 297.2 170.0A2.8 2.8 0 1 0 302.8 170.0ZM302.8 210.0A2.8 2.8 0 1 0 297.2 210.0A2.8 2.8 0 1 0 302.8 210.0ZM302.8 250.0A2.8 2.8 0 1 0 297.2 250.0A2.8 2.8 0 1 0 302.8 250.0Z" fill="#1D2120" fill-rule="evenodd"/><path d="M300 330l0 0" stroke="none"/></svg>
